<?xml version="1.0" encoding="UTF-8"?>
<svg id="Layer_2" data-name="Layer 2" xmlns="http://www.w3.org/2000/svg" xmlns:xlink="http://www.w3.org/1999/xlink" viewBox="0 0 176.79 146.85">
  <defs>
    <filter id="outer-glow-7" filterUnits="userSpaceOnUse">
      <feOffset dx="0" dy="0"/>
      <feGaussianBlur result="blur" stdDeviation="3"/>
      <feFlood flood-color="#ff0" flood-opacity="1"/>
      <feComposite in2="blur" operator="in"/>
      <feComposite in="SourceGraphic"/>
    </filter>
    <filter id="outer-glow-8" filterUnits="userSpaceOnUse">
      <feOffset dx="0" dy="0"/>
      <feGaussianBlur result="blur-2" stdDeviation="3"/>
      <feFlood flood-color="#ff0" flood-opacity="1"/>
      <feComposite in2="blur-2" operator="in"/>
      <feComposite in="SourceGraphic"/>
    </filter>
  </defs>
  <path d="m139.37,50.81v-16.6c0-13.36-10.87-24.19-24.28-24.19H36.41c-13.41,0-24.28,10.83-24.28,24.19v78.42c0,13.36,10.87,24.19,24.28,24.19h78.69c13.41,0,24.28-10.83,24.28-24.19v-16.6l25.29-24.1-25.29-21.12Z" fill="none" filter="url(#outer-glow-7)" stroke="#00ff42" stroke-miterlimit="10" stroke-width="3"/>
  <path d="m139.37,50.81v-16.6c0-13.36-10.87-24.19-24.28-24.19H36.41c-13.41,0-24.28,10.83-24.28,24.19v78.42c0,13.36,10.87,24.19,24.28,24.19h78.69c13.41,0,24.28-10.83,24.28-24.19v-16.6l25.29-24.1-25.29-21.12Z" fill="none" filter="url(#outer-glow-8)" stroke="#00ff42" stroke-miterlimit="10" stroke-width="3"/>
</svg>