<?xml version="1.0" encoding="UTF-8"?>
<svg id="Layer_2" data-name="Layer 2" xmlns="http://www.w3.org/2000/svg" xmlns:xlink="http://www.w3.org/1999/xlink" viewBox="0 0 123 123.53">
  <defs>
    <filter id="drop-shadow-9" filterUnits="userSpaceOnUse">
      <feOffset dx="5" dy="4"/>
      <feGaussianBlur result="blur" stdDeviation="2"/>
      <feFlood flood-color="#2e3c5b" flood-opacity=".75"/>
      <feComposite in2="blur" operator="in"/>
      <feComposite in="SourceGraphic"/>
    </filter>
    <filter id="drop-shadow-10" filterUnits="userSpaceOnUse">
      <feOffset dx="3" dy="3"/>
      <feGaussianBlur result="blur-2" stdDeviation="1"/>
      <feFlood flood-color="#aaa" flood-opacity=".75"/>
      <feComposite in2="blur-2" operator="in"/>
      <feComposite in="SourceGraphic"/>
    </filter>
  </defs>
  <rect x="10.74" y="10" width="102.88" height="104.78" rx="16.54" ry="16.54" fill="#fff" filter="url(#drop-shadow-9)" stroke-width="0"/>
  <g>
    <path d="m27.64,84.34c.05-.16.1-.32.14-.48.59-2.29,2.48-3.85,4.85-3.98.21-.01.43-.01.64-.01,18.14,0,36.29,0,54.43,0,2.71,0,4.71,1.4,5.4,3.76.94,3.23-1.44,6.51-4.8,6.61-.23,0-.47,0-.71,0-18.08,0-36.16,0-54.24,0-3.06,0-4.8-1.32-5.64-4.27-.01-.04-.05-.06-.08-.1,0-.51,0-1.03,0-1.54Z" fill="#211100" stroke-width="0"/>
    <path d="m27.64,35.86c.33-1.11.76-2.17,1.65-2.97,1.01-.91,2.19-1.39,3.55-1.39,2.8,0,5.6,0,8.4,0,15.54,0,31.07,0,46.61,0,2.52,0,4.49,1.36,5.21,3.58,1.05,3.26-1.24,6.56-4.71,6.78-.3.02-.6.01-.9.01-17.82,0-35.65,0-53.47,0-3.77,0-5.09-.93-6.34-4.47v-1.54Z" fill="#211100" stroke-width="0"/>
    <path d="m27.64,60.1c.08-.24.16-.48.23-.72.64-2.11,2.48-3.55,4.68-3.67.19,0,.38-.01.58-.01,18.23,0,36.46,0,54.69,0,2.66,0,4.64,1.42,5.31,3.78.89,3.17-1.38,6.36-4.67,6.55-.32.02-.64.02-.96.02-17.84,0-35.69-.04-53.53.04-3.35.01-5.59-1.36-6.32-4.44,0-.51,0-1.03,0-1.54Z" fill="#211100" stroke-width="0"/>
  </g>
  <rect x="9.37" y="8.74" width="104.25" height="104.25" rx="15.55" ry="15.55" fill="none" filter="url(#drop-shadow-10)" stroke="#ffe600" stroke-linecap="round" stroke-linejoin="round" stroke-width="5"/>
</svg>